<?xml version="1.0" standalone="no"?>
<!DOCTYPE svg PUBLIC "-//W3C//DTD SVG 20010904//EN"
 "http://www.w3.org/TR/2001/REC-SVG-20010904/DTD/svg10.dtd">
<svg version="1.0" xmlns="http://www.w3.org/2000/svg"
 width="700.000000pt" height="700.000000pt" viewBox="0 0 700.000000 700.000000"
 preserveAspectRatio="xMidYMid meet">
<metadata>
Created by potrace 1.14, written by Peter Selinger 2001-2017
</metadata>
<g transform="translate(0.000000,700.000000) scale(0.100000,-0.100000)"
fill="#000000" stroke="none">
<path d="M5739 6249 c-41 -16 -84 -34 -96 -39 -13 -6 -33 -14 -45 -20 -13 -5
-192 -79 -398 -165 -206 -85 -384 -160 -395 -165 -50 -23 -504 -208 -725 -295
-135 -54 -258 -103 -275 -111 -16 -7 -66 -27 -110 -44 -44 -17 -124 -54 -178
-82 l-97 -51 124 -62 c256 -129 506 -322 663 -515 15 -19 36 -44 46 -55 42
-45 176 -258 225 -357 69 -140 142 -346 168 -473 33 -165 38 -213 38 -405 1
-234 -7 -315 -48 -495 -37 -160 -157 -460 -228 -569 -7 -11 -32 -49 -54 -85
-23 -37 -62 -93 -88 -126 -25 -33 -56 -73 -68 -88 -31 -41 -204 -213 -245
-245 l-35 -26 53 -13 c139 -32 243 -41 434 -38 417 7 785 134 1120 389 87 65
244 218 317 306 209 252 365 611 413 950 12 77 14 412 4 475 -5 33 -11 71 -13
85 -39 260 -149 537 -309 775 -86 128 -242 295 -372 400 -28 22 -55 45 -61 50
-6 6 -29 21 -52 35 l-40 25 106 155 c140 206 205 300 267 390 150 217 205 303
206 323 5 76 -13 122 -63 161 -50 38 -102 39 -189 5z"/>
<path d="M2489 5276 c-2 -3 -31 -7 -64 -10 -157 -13 -395 -77 -554 -148 -36
-16 -68 -30 -71 -30 -3 -1 -27 -14 -53 -30 -26 -15 -50 -28 -54 -28 -11 0
-220 -144 -272 -188 -103 -88 -196 -183 -283 -290 -9 -11 -41 -56 -71 -99
-171 -245 -281 -536 -326 -863 -11 -77 -11 -360 -1 -428 5 -26 11 -69 14 -95
9 -67 59 -256 91 -347 35 -98 123 -278 175 -360 123 -191 302 -384 472 -510
49 -35 88 -68 88 -71 0 -4 -44 -72 -98 -151 -54 -78 -129 -188 -167 -243 -37
-55 -102 -149 -143 -210 -42 -60 -93 -135 -114 -166 -66 -94 -68 -171 -6 -236
67 -69 106 -66 328 27 218 90 356 147 580 239 96 39 184 76 195 81 54 26 443
185 806 330 435 174 572 238 710 331 335 225 582 531 732 909 52 130 95 288
112 405 22 160 28 427 11 513 -3 15 -8 45 -11 66 -4 33 -19 105 -40 199 -7 31
-65 197 -86 245 -67 156 -185 354 -275 462 -64 76 -225 233 -299 291 -250 197
-553 330 -875 384 -85 15 -441 31 -451 21z"/>
</g>
</svg>
